<svg width="32" height="32" viewBox="0 0 32 32" fill="none" xmlns="http://www.w3.org/2000/svg">
<path d="M12.8136 28.2143L30.6441 7.5C31.2316 6.88095 31.5254 6.16667 31.5254 5.35714C31.5254 4.54762 31.2316 3.83333 30.6441 3.21429L28.339 0.785714C27.8418 0.261905 27.1638 0 26.3051 0C25.4011 0 24.7232 0.261905 24.2712 0.785714L12.8136 13.0714L7.66102 7.5C6.93786 6.54762 6.25989 6.07143 5.62712 6.07143C5.03955 6.07143 4.36159 6.47619 3.59323 7.28571L1.28814 9.92857C0.700569 10.5476 0.406784 11.2738 0.406784 12.1071C0.406784 12.9405 0.700569 13.619 1.28814 14.1429L12.8136 28.2143ZM5.62712 9.92857L12.8136 17.5L26.1695 2.92857L28.4746 5.5L12.8136 23.6429L3.32204 12.2143L5.62712 9.92857Z" fill="#208A0E"/>
</svg>
