<svg width="20" height="23" viewBox="0 0 20 23" fill="none" xmlns="http://www.w3.org/2000/svg">
<g filter="url(#filter0_d_5_13)">
<path d="M5.64016 4.27L9.50016 8.13L13.3402 4.29C13.425 4.19972 13.5272 4.12749 13.6406 4.07766C13.754 4.02783 13.8763 4.00141 14.0002 4C14.2654 4 14.5197 4.10536 14.7073 4.29289C14.8948 4.48043 15.0002 4.73478 15.0002 5C15.0025 5.1226 14.9797 5.24439 14.9333 5.35788C14.8869 5.47138 14.8178 5.57419 14.7302 5.66L10.8402 9.5L14.7302 13.39C14.895 13.5512 14.9916 13.7696 15.0002 14C15.0002 14.2652 14.8948 14.5196 14.7073 14.7071C14.5197 14.8946 14.2654 15 14.0002 15C13.8727 15.0053 13.7456 14.984 13.6268 14.9375C13.508 14.8911 13.4002 14.8204 13.3102 14.73L9.50016 10.87L5.65016 14.72C5.56567 14.8073 5.46473 14.8769 5.35316 14.925C5.2416 14.9731 5.12163 14.9986 5.00016 15C4.73495 15 4.48059 14.8946 4.29306 14.7071C4.10552 14.5196 4.00016 14.2652 4.00016 14C3.99783 13.8774 4.02058 13.7556 4.06701 13.6421C4.11344 13.5286 4.18257 13.4258 4.27016 13.34L8.16016 9.5L4.27016 5.61C4.10535 5.44876 4.0087 5.23041 4.00016 5C4.00016 4.73478 4.10552 4.48043 4.29306 4.29289C4.48059 4.10536 4.73495 4 5.00016 4C5.24016 4.003 5.47016 4.1 5.64016 4.27Z" fill="#F8F8F8"/>
</g>
<defs>
<filter id="filter0_d_5_13" x="0" y="4" width="19.0003" height="19.0008" filterUnits="userSpaceOnUse" color-interpolation-filters="sRGB">
<feFlood flood-opacity="0" result="BackgroundImageFix"/>
<feColorMatrix in="SourceAlpha" type="matrix" values="0 0 0 0 0 0 0 0 0 0 0 0 0 0 0 0 0 0 127 0" result="hardAlpha"/>
<feOffset dy="4"/>
<feGaussianBlur stdDeviation="2"/>
<feComposite in2="hardAlpha" operator="out"/>
<feColorMatrix type="matrix" values="0 0 0 0 0 0 0 0 0 0 0 0 0 0 0 0 0 0 0.25 0"/>
<feBlend mode="normal" in2="BackgroundImageFix" result="effect1_dropShadow_5_13"/>
<feBlend mode="normal" in="SourceGraphic" in2="effect1_dropShadow_5_13" result="shape"/>
</filter>
</defs>
</svg>
