<svg width="24" height="24" viewBox="0 0 24 24" fill="none" xmlns="http://www.w3.org/2000/svg">
<path d="M12 14.975C11.8667 14.975 11.7377 14.95 11.613 14.9C11.4877 14.85 11.3833 14.7833 11.3 14.7L6.69999 10.1C6.51665 9.91667 6.42499 9.68333 6.42499 9.4C6.42499 9.11667 6.51665 8.88333 6.69999 8.7C6.88332 8.51667 7.11665 8.425 7.39999 8.425C7.68332 8.425 7.91665 8.51667 8.09999 8.7L12 12.6L15.9 8.7C16.0833 8.51667 16.3167 8.425 16.6 8.425C16.8833 8.425 17.1167 8.51667 17.3 8.7C17.4833 8.88333 17.575 9.11667 17.575 9.4C17.575 9.68333 17.4833 9.91667 17.3 10.1L12.7 14.7C12.6 14.8 12.4917 14.8707 12.375 14.912C12.2583 14.954 12.1333 14.975 12 14.975V14.975Z" fill="black"/>
</svg>
