<svg width="22" height="15" viewBox="0 0 22 15" fill="none" xmlns="http://www.w3.org/2000/svg">
<path d="M20.7422 2.77246C20.6324 2.63821 20.4942 2.53008 20.3374 2.45592C20.1806 2.38177 20.0093 2.34345 19.8359 2.34375H4.9751L4.67578 0.645508C4.64387 0.464614 4.54923 0.30075 4.4085 0.182699C4.26777 0.0646486 4.08994 -3.85945e-05 3.90625 1.72755e-08H0.78125C0.57405 1.72755e-08 0.375336 0.0823102 0.228823 0.228823C0.08231 0.375336 0 0.57405 0 0.78125C0 0.98845 0.08231 1.18716 0.228823 1.33368C0.375336 1.48019 0.57405 1.5625 0.78125 1.5625H3.25098L5.48047 14.1982C5.51238 14.3791 5.60702 14.543 5.74775 14.6611C5.88848 14.7791 6.06631 14.8438 6.25 14.8438H18.75C18.9572 14.8438 19.1559 14.7614 19.3024 14.6149C19.4489 14.4684 19.5312 14.2697 19.5312 14.0625C19.5312 13.8553 19.4489 13.6566 19.3024 13.5101C19.1559 13.3636 18.9572 13.2812 18.75 13.2812H6.90527L6.62988 11.7188H18.4297C18.7006 11.7184 18.9631 11.6245 19.1727 11.4528C19.3824 11.2812 19.5263 11.0424 19.5801 10.7769L20.9863 3.74561C21.0202 3.57544 21.0159 3.39987 20.9737 3.23158C20.9314 3.06329 20.8524 2.90648 20.7422 2.77246V2.77246Z" fill="#4C7972"/>
</svg>
