<svg width="16" height="17" viewBox="0 0 16 17" fill="none" xmlns="http://www.w3.org/2000/svg">
<path d="M6.5 2.5H9.5C9.5 2.10218 9.34196 1.72064 9.06066 1.43934C8.77936 1.15804 8.39782 1 8 1C7.60218 1 7.22064 1.15804 6.93934 1.43934C6.65804 1.72064 6.5 2.10218 6.5 2.5V2.5ZM5.5 2.5C5.5 1.83696 5.76339 1.20107 6.23223 0.732233C6.70107 0.263392 7.33696 0 8 0C8.66304 0 9.29893 0.263392 9.76777 0.732233C10.2366 1.20107 10.5 1.83696 10.5 2.5H15.5C15.6326 2.5 15.7598 2.55268 15.8536 2.64645C15.9473 2.74021 16 2.86739 16 3C16 3.13261 15.9473 3.25979 15.8536 3.35355C15.7598 3.44732 15.6326 3.5 15.5 3.5H14.446L13.252 13.844C13.1676 14.5752 12.8173 15.2498 12.2679 15.7396C11.7184 16.2293 11.008 16.4999 10.272 16.5H5.728C4.99195 16.4999 4.28161 16.2293 3.73214 15.7396C3.18266 15.2498 2.8324 14.5752 2.748 13.844L1.554 3.5H0.5C0.367392 3.5 0.240215 3.44732 0.146447 3.35355C0.0526785 3.25979 0 3.13261 0 3C0 2.86739 0.0526785 2.74021 0.146447 2.64645C0.240215 2.55268 0.367392 2.5 0.5 2.5H5.5ZM7 6.5C7 6.36739 6.94732 6.24021 6.85355 6.14645C6.75979 6.05268 6.63261 6 6.5 6C6.36739 6 6.24021 6.05268 6.14645 6.14645C6.05268 6.24021 6 6.36739 6 6.5V12.5C6 12.6326 6.05268 12.7598 6.14645 12.8536C6.24021 12.9473 6.36739 13 6.5 13C6.63261 13 6.75979 12.9473 6.85355 12.8536C6.94732 12.7598 7 12.6326 7 12.5V6.5ZM9.5 6C9.36739 6 9.24021 6.05268 9.14645 6.14645C9.05268 6.24021 9 6.36739 9 6.5V12.5C9 12.6326 9.05268 12.7598 9.14645 12.8536C9.24021 12.9473 9.36739 13 9.5 13C9.63261 13 9.75979 12.9473 9.85355 12.8536C9.94732 12.7598 10 12.6326 10 12.5V6.5C10 6.36739 9.94732 6.24021 9.85355 6.14645C9.75979 6.05268 9.63261 6 9.5 6Z" fill="#F8F8F8"/>
</svg>
